<svg width="150" height="121" viewBox="0 0 150 121" fill="none" xmlns="http://www.w3.org/2000/svg">
<g id="icon">
<path id="Vector" d="M103.4 20.3926C103.399 24.604 101.709 28.6443 98.6994 31.6329C91.7698 38.5198 85.0461 45.7007 77.8538 52.3357C77.0508 53.0568 75.9976 53.4465 74.9116 53.4244C73.8256 53.4022 72.7896 52.9699 72.0176 52.2167L51.2998 31.6399C48.2882 28.6494 46.5981 24.6064 46.5981 20.3926C46.5981 16.1788 48.2882 12.1359 51.2998 9.14536C52.8025 7.65306 54.59 6.46867 56.5592 5.66043C58.5283 4.85219 60.6403 4.43608 62.7734 4.43608C64.9064 4.43608 67.0184 4.85219 68.9876 5.66043C70.9568 6.46867 72.7443 7.65306 74.247 9.14536L74.9996 9.89424L75.7522 9.14536C78.0079 6.89776 80.891 5.36267 84.0345 4.73551C87.1781 4.10835 90.4399 4.41749 93.4046 5.62358C96.3693 6.82967 98.903 8.87814 100.683 11.5082C102.463 14.1383 103.409 17.231 103.4 20.3926V20.3926Z" stroke="#FFE500" stroke-width="8" stroke-linejoin="round"/>
<path id="Vector_2" d="M117.6 116.417L144.75 89.653C145.549 88.8662 145.999 87.7988 146 86.6854V49.9271C146 47.1427 144.878 44.4724 142.88 42.5036C140.883 40.5348 138.174 39.4287 135.35 39.4287V39.4287C132.525 39.4287 129.816 40.5348 127.819 42.5036C125.822 44.4724 124.7 47.1427 124.7 49.9271V81.4222" stroke="#FFE500" stroke-width="8" stroke-linecap="round" stroke-linejoin="round"/>
<path id="Vector_3" d="M117.6 88.4237L123.692 82.4186C124.012 82.1036 124.266 81.7293 124.439 81.3174C124.612 80.9054 124.701 80.4638 124.7 80.018C124.699 79.3886 124.521 78.7719 124.185 78.2367C123.849 77.7016 123.368 77.2691 122.797 76.9875L119.652 75.4407C116.987 74.1273 113.971 73.6734 111.03 74.1431C108.089 74.6129 105.373 75.9826 103.265 78.0583L96.9106 84.3223C94.2474 86.9468 92.7508 90.5066 92.75 94.2188V116.419" stroke="#FFE500" stroke-width="8" stroke-linecap="round" stroke-linejoin="round"/>
<path id="Vector_4" d="M32.4 116.417L5.2496 89.653C4.45047 88.8662 4.00099 87.7988 4 86.6854V49.9271C4 47.1427 5.12205 44.4724 7.11932 42.5036C9.11658 40.5348 11.8255 39.4287 14.65 39.4287V39.4287C17.4746 39.4287 20.1834 40.5348 22.1807 42.5036C24.178 44.4724 25.3 47.1427 25.3 49.9271V81.4222" stroke="#FFE500" stroke-width="8" stroke-linecap="round" stroke-linejoin="round"/>
<path id="Vector_5" d="M32.4003 88.4237L26.3085 82.4186C25.9888 82.1033 25.7352 81.7291 25.5622 81.3172C25.3892 80.9053 25.3002 80.4638 25.3003 80.018V80.018C25.3003 78.7372 26.0387 77.5684 27.2031 76.9875L30.3484 75.4407C33.0131 74.1273 36.0294 73.6734 38.9703 74.1431C41.9111 74.6129 44.6276 75.9826 46.7352 78.0583L53.0897 84.3223C55.7529 86.9468 57.2495 90.5066 57.2503 94.2188V116.419" stroke="#FFE500" stroke-width="8" stroke-linecap="round" stroke-linejoin="round"/>
</g>
</svg>
