<svg width="48" height="48" viewBox="0 0 48 48" fill="none" xmlns="http://www.w3.org/2000/svg">
<path id="logo" d="M44.0325 37.2021C46.5404 33.412 48 28.8719 48 24.0012C48 19.0901 46.5162 14.5097 43.968 10.7034C43.1374 11.6872 42.3955 12.7436 41.7584 13.8726C43.468 16.8563 44.4518 20.3158 44.4518 24.0012C44.4518 24.356 44.4437 24.7027 44.4276 25.0495C44.3631 26.3317 42.4438 26.2752 42.4438 24.985V20.59L39.6537 19.3078L36.3393 17.7918L32.2105 15.8967C31.5815 15.6064 31.1703 14.9774 31.1703 14.2839V6.34071C31.1703 5.62301 31.9202 5.13109 32.5734 5.43753C35.2507 6.67941 37.6135 8.47771 39.5085 10.6873C40.1698 9.67926 40.9117 8.72769 41.7181 7.83258C35.799 1.34902 26.3802 -1.8847 16.4856 1.14741C9.30853 3.34892 3.60723 8.92123 1.28477 16.0499C-1.57798 24.864 0.559003 33.3394 5.55873 39.3391L5.71195 39.5165C10.1149 44.7018 16.6791 48 24.0013 48C31.0493 48 37.4038 44.9437 41.7907 40.0891C40.8391 39.0408 39.9762 37.9118 39.2263 36.7102C39.0569 36.4441 38.7505 36.3231 38.436 36.3635C38.3957 36.3715 38.3473 36.3715 38.307 36.3715H32.1702C31.6218 36.3715 31.1783 35.928 31.1783 35.3796V30.0815C31.1783 29.5331 31.6218 29.0896 32.1702 29.0896H34.0088C34.5572 29.0896 35.0007 28.6461 35.0007 28.0977V26.9365C35.0007 26.3881 34.5572 25.9446 34.0088 25.9446H32.1702C31.6218 25.9446 31.1783 25.5011 31.1783 24.9527V23.2915C31.1783 22.7431 30.7348 22.2996 30.1864 22.2996H29.0252C28.4769 22.2996 28.0333 22.7431 28.0333 23.2915V24.9527C28.0333 25.5011 27.5898 25.9446 27.0414 25.9446H25.2028C24.6545 25.9446 24.211 26.3881 24.211 26.9365V28.0977C24.211 28.6461 24.6545 29.0896 25.2028 29.0896H27.0414C27.5898 29.0896 28.0333 29.5331 28.0333 30.0815V38.6456C28.0414 39.1295 28.4285 39.5085 28.9123 39.5165H34.2991C35.3071 39.5165 35.67 40.831 34.8233 41.3552C31.6864 43.3147 27.9849 44.4518 24.0174 44.4518C20.0499 44.4518 16.3485 43.3147 13.2115 41.3552C12.3487 40.831 12.7116 39.5165 13.7115 39.5165H18.8967C19.4451 39.5165 19.8886 39.073 19.8886 38.5246V15.3564C19.8886 14.6306 20.6386 14.1549 21.2998 14.4532L35.7184 21.0577L38.7182 22.4286C38.9037 22.5174 39.0569 22.6544 39.1618 22.8238C39.2505 22.977 39.2989 23.1464 39.2989 23.3238V26.5414C39.815 30.5815 41.5165 34.2507 44.0325 37.2021ZM16.7517 35.3796C16.7517 35.928 16.3082 36.3715 15.7598 36.3715H9.70367C9.15531 36.3715 8.71179 35.928 8.71179 35.3796V23.3318C8.71179 22.9448 8.93758 22.5899 9.29241 22.4286L15.3485 19.6546C16.0098 19.3562 16.7597 19.832 16.7597 20.5578V35.3796H16.7517ZM16.7517 14.8322C16.7517 15.2193 16.5259 15.5741 16.1711 15.7354L5.5668 20.59L5.55873 32.8394C4.27655 30.1621 3.55078 27.1623 3.55078 24.0012C3.55078 15.8161 8.38116 8.74382 15.3485 5.47785C16.0017 5.17141 16.7517 5.66333 16.7517 6.38103V14.8322ZM28.0253 12.4453C28.0253 13.171 27.2753 13.6468 26.6221 13.3484L20.4773 10.5341C20.1225 10.3728 19.8967 10.018 19.8967 9.63088V5.52624C19.8967 4.97787 20.3402 4.53435 20.8886 4.53435H27.0253C27.5737 4.53435 28.0172 4.97787 28.0172 5.52624V12.4453H28.0253Z" fill="black"/>
</svg>
